<?xml version="1.0" encoding="UTF-8" standalone="no"?>
<svg
   xmlns:dc="http://purl.org/dc/elements/1.1/"
   xmlns:cc="http://creativecommons.org/ns#"
   xmlns:rdf="http://www.w3.org/1999/02/22-rdf-syntax-ns#"
   xmlns:svg="http://www.w3.org/2000/svg"
   xmlns="http://www.w3.org/2000/svg"
   xmlns:sodipodi="http://sodipodi.sourceforge.net/DTD/sodipodi-0.dtd"
   xmlns:inkscape="http://www.inkscape.org/namespaces/inkscape"
   version="1.0"
   width="650.000000pt"
   height="686.000000pt"
   viewBox="0 0 650.000000 686.000000"
   preserveAspectRatio="xMidYMid meet"
   id="svg124"
   sodipodi:docname="tech.svg"
   inkscape:version="0.92.5 (2060ec1f9f, 2020-04-08)">
  <metadata
     id="metadata130">
    <rdf:RDF>
      <cc:Work
         rdf:about="">
        <dc:format>image/svg+xml</dc:format>
        <dc:type
           rdf:resource="http://purl.org/dc/dcmitype/StillImage" />
      </cc:Work>
    </rdf:RDF>
  </metadata>
  <defs
     id="defs128" />
  <sodipodi:namedview
     pagecolor="#ffffff"
     bordercolor="#666666"
     borderopacity="1"
     objecttolerance="10"
     gridtolerance="10"
     guidetolerance="10"
     inkscape:pageopacity="0"
     inkscape:pageshadow="2"
     inkscape:window-width="1226"
     inkscape:window-height="656"
     id="namedview126"
     showgrid="false"
     inkscape:zoom="0.25801749"
     inkscape:cx="-839.83616"
     inkscape:cy="457.33333"
     inkscape:window-x="54"
     inkscape:window-y="27"
     inkscape:window-maximized="1"
     inkscape:current-layer="svg124" />
  <g
     transform="matrix(0.16776824,0,0,-0.15911631,-251.76909,870.95825)"
     id="g122"
     style="opacity:0.98999999;fill:#ffffff;fill-opacity:0.50226247;stroke:none">
    <path
       d="m 3242,6558 c -7,-7 -12,-26 -12,-43 0,-24 -12,-43 -60,-90 l -60,-59 v -411 -411 l -30,-29 -30,-29 v -375 -376 l 365,-365 365,-365 v -290 -290 l -173,-173 -172,-172 h -68 -67 v 263 c 0,251 1,265 20,282 27,24 25,51 -4,70 -26,18 -52,11 -67,-16 -10,-20 3,-59 21,-59 6,0 11,-109 12,-272 l 3,-273 74,-3 75,-3 178,178 178,178 v 295 295 l -365,365 -365,365 v 366 365 l 30,29 30,29 v 411 412 l 62,62 c 41,42 67,61 79,58 26,-7 59,20 59,48 0,37 -52,59 -78,33 z m 59,-14 c 17,-21 0,-49 -32,-49 -27,0 -37,28 -19,50 16,19 34,19 51,-1 z"
       id="path2"
       style="fill:#ffffff;fill-opacity:0.50226247"
       inkscape:connector-curvature="0" />
    <path
       d="m 3601,6556 c -19,-23 -9,-68 17,-77 18,-7 28,-3 48,16 24,25 28,25 183,25 145,0 159,-2 176,-20 32,-36 85,-20 85,25 0,45 -59,63 -82,25 -12,-19 -24,-20 -178,-20 -153,0 -167,1 -183,20 -20,23 -50,26 -66,6 z m 489,-11 c 20,-24 3,-57 -28,-53 -30,3 -41,30 -22,53 16,19 34,19 50,0 z"
       id="path4"
       style="fill:#ffffff;fill-opacity:0.50226247"
       inkscape:connector-curvature="0" />
    <path
       d="m 2629,6529 c -14,-14 -19,-28 -15,-43 4,-18 -41,-68 -274,-301 l -280,-280 v -148 c 0,-144 -1,-150 -25,-179 -22,-26 -25,-39 -25,-109 0,-68 -3,-81 -20,-91 -24,-15 -27,-60 -6,-78 25,-20 60,-8 71,24 8,24 6,31 -13,46 -19,16 -22,28 -22,97 0,75 2,81 30,108 l 30,29 v 150 151 l 275,275 c 209,209 280,274 296,272 23,-4 59,24 59,45 0,15 -35,53 -50,53 -5,0 -19,-9 -31,-21 z m 59,-11 c 16,-16 15,-23 -4,-42 -19,-20 -29,-20 -48,0 -12,12 -13,20 -6,35 12,21 40,25 58,7 z"
       id="path6"
       style="fill:#ffffff;fill-opacity:0.50226247"
       inkscape:connector-curvature="0" />
    <path
       d="m 2846,6537 c -26,-19 -24,-68 3,-85 l 21,-14 v -659 -659 l -35,-39 -35,-38 v -159 -158 l -287,-288 c -241,-241 -291,-286 -309,-282 -25,6 -64,-25 -64,-51 0,-26 39,-57 63,-50 30,9 49,36 43,60 -4,17 53,80 284,310 l 290,290 v 160 161 l 35,34 35,34 v 671 c 0,659 0,670 20,683 11,7 20,21 20,32 0,23 -33,60 -53,60 -7,0 -21,-6 -31,-13 z m 58,-34 c 8,-20 -19,-44 -40,-36 -8,3 -14,16 -14,29 0,19 5,24 24,24 13,0 27,-8 30,-17 z M 2214,4125 c 20,-20 10,-45 -19,-45 -29,0 -39,25 -19,45 9,8 17,15 19,15 2,0 10,-7 19,-15 z"
       id="path8"
       style="fill:#ffffff;fill-opacity:0.50226247"
       inkscape:connector-curvature="0" />
    <path
       d="m 2340,6480 c -13,-13 -18,-28 -15,-43 5,-18 -30,-57 -210,-237 l -215,-215 v -150 c 0,-139 -1,-151 -20,-163 -25,-15 -26,-44 -2,-65 26,-24 49,-21 67,7 13,19 14,29 5,45 -6,12 -15,21 -20,21 -6,0 -10,61 -10,153 v 152 l 210,210 c 168,169 214,209 233,207 14,-2 31,6 42,18 18,20 18,24 4,48 -19,34 -42,39 -69,12 z m 59,-14 c 23,-28 -17,-68 -45,-45 -15,12 -19,41 -7,52 11,12 40,8 52,-7 z m -461,-822 c 2,-11 -3,-26 -11,-33 -29,-24 -70,17 -46,46 17,20 53,12 57,-13 z"
       id="path10"
       style="fill:#ffffff;fill-opacity:0.50226247"
       inkscape:connector-curvature="0" />
    <path
       d="m 4502,6375 -30,-25 h -444 -443 l -128,-128 -127,-127 v -218 c 0,-141 -4,-217 -10,-217 -6,0 -15,-11 -22,-25 -15,-32 12,-75 47,-75 35,0 62,43 47,75 -7,14 -16,25 -22,25 -6,0 -10,76 -10,217 v 218 l 117,117 118,118 h 442 c 430,0 444,-1 463,-20 25,-25 52,-26 73,-2 23,26 21,58 -5,76 -29,21 -31,20 -66,-9 z m 65,-21 c 8,-21 -19,-46 -40,-38 -17,6 -23,35 -10,47 12,13 44,7 50,-9 z M 3368,5628 c 14,-14 -2,-48 -23,-48 -17,0 -34,30 -28,48 6,15 35,16 51,0 z"
       id="path12"
       style="fill:#ffffff;fill-opacity:0.50226247"
       inkscape:connector-curvature="0" />
    <path
       d="m 2640,6320 c -6,-12 -9,-29 -6,-38 4,-12 -13,-37 -59,-82 l -65,-64 v -252 -252 l -241,-241 -241,-241 h -187 -186 l -163,-163 -162,-162 v -164 -164 l -122,-123 c -103,-105 -125,-123 -145,-118 -31,8 -53,-12 -53,-47 0,-32 28,-53 57,-42 24,9 33,23 33,53 0,19 31,56 120,145 l 120,120 v 165 165 l 158,158 157,157 h 185 185 l 252,252 253,253 v 250 251 l 60,59 c 46,45 67,59 85,57 33,-4 61,38 45,67 -15,28 -65,28 -80,1 z m 68,-21 c 3,-28 -16,-43 -43,-33 -15,6 -21,45 -8,58 16,16 48,1 51,-25 z M 1088,4207 c -2,-17 -10,-22 -33,-22 -35,0 -47,31 -20,51 25,18 57,0 53,-29 z"
       id="path14"
       style="fill:#ffffff;fill-opacity:0.50226247"
       inkscape:connector-curvature="0" />
    <path
       d="m 4676,6244 c -22,-21 -20,-51 4,-66 13,-9 20,-24 20,-45 v -33 h -503 -502 l -83,-83 -82,-82 v -135 c 0,-123 -2,-137 -20,-153 -38,-32 -19,-77 32,-77 38,0 55,33 33,66 -8,13 -20,24 -26,24 -6,0 -10,48 -9,133 l 2,132 81,83 82,82 h 502 503 v 35 c 0,24 6,37 20,45 23,12 27,59 8,78 -17,17 -44,15 -62,-4 z m 54,-9 c 18,-22 8,-50 -19,-50 -32,0 -49,28 -32,49 17,20 35,20 51,1 z M 3554,5644 c 21,-8 21,-53 0,-61 -18,-7 -45,6 -51,24 -2,6 3,18 12,27 19,18 18,18 39,10 z"
       id="path16"
       style="fill:#ffffff;fill-opacity:0.50226247"
       inkscape:connector-curvature="0" />
    <path
       d="m 1800,6189 c -7,-11 -9,-28 -5,-37 4,-11 -52,-73 -202,-224 -186,-186 -211,-208 -241,-208 -40,0 -61,-34 -43,-69 23,-42 99,-13 87,33 -4,18 33,60 207,234 117,117 216,210 219,206 13,-12 57,6 63,26 16,51 -60,86 -85,39 z m 70,-8 c 7,-15 6,-24 -6,-36 -31,-30 -66,-1 -50,41 8,20 44,17 56,-5 z m -491,-488 c 12,-23 -4,-53 -29,-53 -25,0 -41,29 -29,52 12,23 45,23 58,1 z"
       id="path18"
       style="fill:#ffffff;fill-opacity:0.50226247"
       inkscape:connector-curvature="0" />
    <path
       d="m 3817,5872 -87,-87 v -304 -303 l -25,-29 c -34,-41 -19,-79 33,-79 30,0 49,39 33,69 -7,11 -16,21 -21,21 -6,0 -10,117 -10,308 v 307 l 88,88 87,87 h 553 553 l 50,-47 c 35,-33 48,-51 44,-64 -13,-41 35,-76 71,-51 36,24 12,82 -34,82 -20,0 -41,13 -72,45 l -44,45 h -566 -565 z m 1368,-47 c 0,-23 -5,-31 -21,-33 -30,-4 -48,21 -34,48 18,33 55,23 55,-15 z"
       id="path20"
       style="fill:#ffffff;fill-opacity:0.50226247"
       inkscape:connector-curvature="0" />
    <path
       d="m 3877,5802 c -23,-25 -21,-49 3,-64 19,-12 20,-24 20,-295 0,-186 -4,-283 -10,-283 -6,0 -15,-11 -21,-24 -16,-35 3,-66 41,-66 51,0 62,56 18,88 -17,12 -18,34 -18,287 0,258 1,275 19,284 27,15 34,41 16,67 -19,29 -46,31 -68,6 z m 51,-4 c 30,-30 -1,-73 -36,-51 -23,14 -25,29 -7,47 20,19 27,20 43,4 z m 0,-657 c 20,-12 11,-55 -12,-59 -27,-6 -48,25 -35,49 10,20 26,24 47,10 z"
       id="path22"
       style="fill:#ffffff;fill-opacity:0.50226247"
       inkscape:connector-curvature="0" />
    <path
       d="m 4325,5690 c -71,-71 -93,-88 -111,-84 -43,11 -71,-48 -38,-80 31,-32 74,-10 74,37 0,27 13,45 83,115 l 82,82 h 285 285 l 83,-83 82,-82 v -178 c 0,-164 -2,-179 -20,-197 -24,-24 -25,-43 -4,-64 21,-22 50,-20 67,5 18,25 11,56 -15,70 -17,9 -19,22 -18,192 l 2,181 -90,88 -89,88 h -284 -284 z m -85,-130 c 0,-29 -35,-44 -54,-24 -21,20 -20,41 1,53 23,12 53,-4 53,-29 z"
       id="path24"
       style="fill:#ffffff;fill-opacity:0.50226247"
       inkscape:connector-curvature="0" />
    <path
       d="m 2622,5738 c -18,-18 -15,-46 8,-65 18,-15 20,-30 20,-118 v -100 l -308,-308 -307,-307 h -121 -120 l -29,30 c -22,23 -29,39 -27,60 4,37 -32,59 -67,41 -31,-17 -29,-68 4,-81 14,-5 31,-7 38,-4 7,2 26,-9 42,-26 l 29,-30 h 130 131 l 308,308 307,307 v 105 c 0,95 2,106 21,118 15,10 19,21 17,45 -3,27 -7,32 -33,35 -17,2 -36,-3 -43,-10 z m -894,-811 c -2,-17 -10,-22 -33,-22 -35,0 -47,31 -20,51 25,18 57,0 53,-29 z"
       id="path26"
       style="fill:#ffffff;fill-opacity:0.50226247"
       inkscape:connector-curvature="0" />
    <path
       d="m 1395,5500 c -186,-187 -213,-210 -242,-210 -47,0 -68,-43 -37,-74 35,-35 96,-3 79,42 -4,11 53,75 207,229 l 213,213 h 77 78 v -110 c 0,-68 -4,-110 -10,-110 -19,0 -33,-46 -21,-69 17,-30 68,-29 82,3 12,25 -2,66 -21,66 -6,0 -10,48 -10,115 v 115 h -93 -92 z m 414,-47 c 12,-23 -4,-53 -29,-53 -25,0 -41,29 -29,52 12,23 45,23 58,1 z m -630,-192 c 15,-27 -9,-56 -37,-47 -21,7 -31,44 -15,59 13,13 42,7 52,-12 z"
       id="path28"
       style="fill:#ffffff;fill-opacity:0.50226247"
       inkscape:connector-curvature="0" />
    <path
       d="m 4418,5482 -108,-108 v -140 c 0,-127 -2,-141 -20,-157 -38,-32 -19,-77 32,-77 50,0 58,52 14,90 -13,10 -16,37 -16,143 v 130 l 102,103 102,104 h 126 126 l 62,-63 62,-63 v -134 -135 l 85,-85 84,-84 93,2 93,3 68,67 67,66 v 96 c 0,84 2,97 20,108 38,23 20,82 -25,82 -45,0 -63,-59 -25,-82 18,-11 20,-24 20,-103 v -91 l -68,-67 -68,-67 h -84 -85 l -78,78 -77,77 v 135 135 l -72,72 -72,73 h -125 -125 z"
       id="path30"
       style="fill:#ffffff;fill-opacity:0.50226247"
       inkscape:connector-curvature="0" />
    <path
       d="m 4596,5474 c -21,-21 -20,-40 4,-64 16,-16 20,-33 20,-83 v -64 l -70,-69 -70,-69 v -125 -125 l 87,-87 88,-88 h 190 c 178,0 192,-1 208,-20 38,-45 104,-1 77,51 -15,26 -66,26 -80,-1 -10,-19 -21,-20 -198,-20 h -187 l -88,88 -87,87 v 115 116 l 75,74 75,74 v 63 c 0,50 4,67 20,83 11,11 20,26 20,34 0,20 -28,46 -50,46 -10,0 -26,-7 -34,-16 z m 58,-10 c 20,-19 5,-54 -24,-54 -29,0 -44,35 -24,54 8,9 19,16 24,16 5,0 16,-7 24,-16 z m 464,-756 c 2,-20 -2,-28 -19,-33 -30,-10 -53,19 -38,47 15,29 53,20 57,-14 z"
       id="path32"
       style="fill:#ffffff;fill-opacity:0.50226247"
       inkscape:connector-curvature="0" />
    <path
       d="m 1548,5469 c -11,-6 -18,-22 -18,-42 0,-28 -21,-53 -170,-202 l -170,-170 v -175 -176 l -70,-69 c -56,-55 -76,-69 -96,-67 -33,5 -54,-14 -54,-47 0,-34 17,-51 52,-51 30,0 53,30 45,60 -3,12 18,40 69,91 l 74,73 v 176 175 l 168,168 c 143,143 172,167 198,167 37,0 54,16 54,52 0,40 -43,60 -82,37 z m 57,-39 c 0,-18 -6,-26 -23,-28 -27,-4 -40,22 -22,44 19,22 45,13 45,-16 z m -566,-894 c 15,-18 3,-46 -20,-46 -22,0 -34,22 -25,45 7,19 30,19 45,1 z"
       id="path34"
       style="fill:#ffffff;fill-opacity:0.50226247"
       inkscape:connector-curvature="0" />
    <path
       d="m 3304,5415 c -14,-21 -15,-31 -6,-50 7,-14 16,-25 22,-25 7,0 10,-105 10,-307 v -307 l 390,-391 390,-390 v -305 -305 l -98,-97 c -82,-80 -102,-95 -123,-91 -36,7 -66,-29 -53,-65 19,-54 112,-30 97,26 -2,11 30,50 97,117 l 100,100 v 316 316 l -385,384 -385,385 v 305 c 0,292 1,305 20,322 24,20 25,35 4,65 -21,30 -59,29 -80,-3 z m 65,-13 c 12,-22 -3,-42 -30,-42 -21,0 -29,19 -17,43 11,22 35,22 47,-1 z m 529,-2281 c 20,-12 10,-46 -14,-49 -25,-4 -40,24 -23,44 13,16 19,17 37,5 z"
       id="path36"
       style="fill:#ffffff;fill-opacity:0.50226247"
       inkscape:connector-curvature="0" />
    <path
       d="m 3508,5429 c -25,-14 -23,-65 2,-81 19,-12 20,-24 20,-218 v -205 l 113,-113 112,-112 h 299 299 l 23,-26 c 18,-19 30,-24 47,-19 25,8 47,32 47,52 0,18 -37,53 -55,53 -8,0 -24,-9 -35,-20 -19,-19 -33,-20 -318,-20 h -297 l -108,108 -107,107 v 200 c 0,189 1,201 20,213 24,15 26,54 4,76 -18,18 -41,20 -66,5 z m 52,-24 c 18,-21 5,-47 -22,-43 -26,3 -37,36 -16,49 18,12 24,11 38,-6 z"
       id="path38"
       style="fill:#ffffff;fill-opacity:0.50226247"
       inkscape:connector-curvature="0" />
    <path
       d="m 2670,5170 c -14,-14 -18,-28 -15,-43 4,-16 -1,-29 -19,-47 -23,-21 -26,-31 -26,-93 v -69 l -182,-184 c -158,-161 -186,-184 -213,-184 -36,0 -55,-15 -55,-45 0,-27 18,-45 46,-45 29,0 47,24 42,54 -4,21 24,53 184,213 l 188,188 v 66 c 0,59 3,68 28,92 19,18 35,25 46,21 20,-8 56,22 56,46 0,19 -30,50 -48,50 -7,0 -21,-9 -32,-20 z m 64,-16 c 8,-21 -11,-44 -36,-44 -21,0 -33,22 -24,45 7,20 52,19 60,-1 z"
       id="path40"
       style="fill:#ffffff;fill-opacity:0.50226247"
       inkscape:connector-curvature="0" />
    <path
       d="m 4695,4920 c -15,-16 -17,-26 -9,-48 12,-36 61,-43 89,-12 18,19 28,20 342,20 h 323 v -93 c 0,-80 -3,-95 -20,-110 -24,-20 -26,-60 -4,-81 19,-20 34,-20 62,0 27,19 28,55 2,79 -18,16 -20,31 -20,122 v 103 h -338 c -326,0 -338,1 -350,20 -16,26 -54,26 -77,0 z m 63,-28 c 4,-28 -24,-40 -45,-19 -14,13 -14,19 -3,32 18,22 44,15 48,-13 z"
       id="path42"
       style="fill:#ffffff;fill-opacity:0.50226247"
       inkscape:connector-curvature="0" />
    <path
       d="m 1496,4794 c -34,-33 -12,-74 39,-74 26,0 49,-19 153,-123 l 122,-122 v -105 -105 l -250,-250 c -221,-221 -253,-249 -278,-247 -51,6 -71,-56 -27,-83 33,-21 65,-2 65,37 0,30 25,58 250,283 l 250,250 v 115 115 l -125,125 c -85,84 -124,131 -121,142 5,23 -21,58 -44,58 -10,0 -26,-7 -34,-16 z M 1300,3745 c 18,-22 8,-50 -19,-50 -32,0 -49,28 -32,49 17,20 35,20 51,1 z"
       id="path44"
       style="fill:#ffffff;fill-opacity:0.50226247"
       inkscape:connector-curvature="0" />
    <path
       d="m 5210,4740 c -26,-26 -25,-43 5,-76 16,-18 25,-37 23,-52 -3,-24 -3,-24 -127,-24 -68,0 -130,-2 -138,-5 -9,-4 -13,-27 -13,-82 0,-64 -3,-79 -20,-94 -25,-21 -26,-59 -2,-80 24,-22 45,-21 65,1 23,25 21,55 -3,77 -16,15 -20,31 -20,86 v 68 l 138,3 137,3 3,43 c 2,26 11,51 23,63 23,23 24,38 3,67 -19,27 -48,28 -74,2 z m 58,-17 c 13,-26 4,-43 -24,-43 -39,0 -32,55 8,59 4,1 11,-7 16,-16 z m -271,-349 c 3,-8 -2,-23 -11,-32 -15,-15 -17,-15 -32,0 -21,21 -11,48 16,48 11,0 23,-7 27,-16 z"
       id="path46"
       style="fill:#ffffff;fill-opacity:0.50226247"
       inkscape:connector-curvature="0" />
    <path
       d="m 1898,4689 c -24,-14 -23,-55 2,-76 19,-16 20,-30 20,-203 v -186 l -64,-63 -65,-64 -1,-195 c 0,-176 -2,-197 -20,-219 -28,-36 -10,-73 37,-73 30,0 48,35 34,66 -6,13 -15,24 -21,24 -6,0 -10,70 -10,198 v 198 l 60,59 60,59 v 196 c 0,184 1,196 20,208 26,16 26,58 1,72 -24,12 -31,12 -53,-1 z"
       id="path48"
       style="fill:#ffffff;fill-opacity:0.50226247"
       inkscape:connector-curvature="0" />
    <path
       d="m 4074,4515 c -15,-23 -15,-27 0,-50 20,-30 56,-33 81,-5 17,19 31,20 269,20 h 252 l 42,-43 c 28,-28 42,-52 42,-69 0,-28 23,-58 43,-58 25,0 57,32 57,55 0,29 -40,59 -67,51 -13,-4 -32,7 -63,39 l -44,45 h -258 c -247,0 -258,1 -268,20 -16,30 -65,27 -86,-5 z m 70,-11 c 7,-19 -10,-44 -31,-44 -17,0 -27,24 -19,45 7,20 42,19 50,-1 z"
       id="path50"
       style="fill:#ffffff;fill-opacity:0.50226247"
       inkscape:connector-curvature="0" />
    <path
       d="m 5372,4528 c -19,-19 -15,-66 7,-78 19,-9 20,-23 21,-243 l 1,-232 69,-70 c 57,-58 70,-76 70,-102 0,-47 43,-68 74,-37 33,32 5,91 -38,80 -16,-4 -37,11 -93,67 l -73,71 v 231 c 0,219 1,231 20,243 24,15 26,45 4,66 -18,19 -45,21 -62,4 z m 62,-24 c 10,-26 -5,-45 -33,-42 -31,4 -41,36 -16,54 19,14 41,9 49,-12 z m 170,-680 c 20,-19 20,-29 0,-48 -19,-20 -54,-5 -54,24 0,15 21,37 37,40 1,0 9,-7 17,-16 z"
       id="path52"
       style="fill:#ffffff;fill-opacity:0.50226247"
       inkscape:connector-curvature="0" />
    <path
       d="m 5120,4457 c 0,-32 -5,-45 -21,-55 -29,-18 -22,-62 13,-81 24,-14 28,-14 47,3 26,24 27,58 1,81 -11,10 -20,31 -20,47 0,28 0,28 65,28 h 65 v -257 -257 l 265,-266 265,-265 v -82 c 0,-72 -2,-84 -20,-93 -31,-16 -28,-77 5,-92 53,-24 104,54 55,84 -18,11 -20,24 -20,103 v 90 l -260,260 -260,260 v 267 268 h -90 -90 z m 37,-83 c 3,-8 -2,-23 -11,-32 -15,-15 -17,-15 -32,0 -21,21 -11,48 16,48 11,0 23,-7 27,-16 z m 680,-1150 c 7,-20 -22,-45 -43,-37 -14,5 -19,35 -7,46 12,13 44,7 50,-9 z"
       id="path54"
       style="fill:#ffffff;fill-opacity:0.50226247"
       inkscape:connector-curvature="0" />
    <path
       d="m 2587,4342 -117,-117 v -160 -160 l 230,-230 230,-230 v -585 c 0,-574 0,-585 -20,-598 -42,-26 -18,-92 34,-92 42,0 62,70 26,92 -20,13 -20,24 -20,603 v 590 l -230,230 -230,230 v 150 150 l 108,108 107,107 h 196 195 l 37,-38 c 35,-36 37,-41 37,-103 0,-53 -3,-66 -20,-77 -47,-29 -5,-105 48,-86 36,12 43,61 12,89 -16,15 -20,30 -20,84 0,66 0,67 -47,113 l -48,46 -195,1 -196,1 z m 620,-158 c 3,-8 -1,-22 -9,-30 -12,-12 -17,-12 -33,-1 -23,17 -14,47 15,47 11,0 23,-7 27,-16 z M 2966,2235 c 7,-18 -13,-45 -33,-45 -17,0 -27,24 -19,45 7,20 45,19 52,0 z"
       id="path56"
       style="fill:#ffffff;fill-opacity:0.50226247"
       inkscape:connector-curvature="0" />
    <path
       d="m 4392,4404 c -12,-8 -22,-25 -22,-38 0,-31 34,-60 61,-53 17,5 38,-10 98,-69 69,-67 80,-74 116,-74 34,0 47,-6 78,-38 26,-27 37,-47 37,-68 0,-37 16,-54 52,-54 27,0 48,23 48,54 0,23 -29,46 -59,46 -18,0 -39,13 -66,40 -33,34 -46,40 -79,40 -37,0 -47,7 -113,72 -55,55 -73,79 -73,100 0,23 -30,58 -50,58 -3,0 -16,-7 -28,-16 z m 55,-30 c 3,-8 -1,-22 -9,-30 -12,-12 -17,-12 -33,-1 -23,17 -14,47 15,47 11,0 23,-7 27,-16 z m 382,-298 c 15,-18 3,-46 -20,-46 -22,0 -34,22 -25,45 7,19 30,19 45,1 z"
       id="path58"
       style="fill:#ffffff;fill-opacity:0.50226247"
       inkscape:connector-curvature="0" />
    <path
       d="m 2875,4260 c -16,-17 -31,-20 -107,-20 h -88 v -138 -137 l 205,-205 205,-205 v -122 c 0,-110 -2,-125 -20,-143 -27,-27 -25,-56 5,-76 45,-29 95,9 76,59 -5,13 -17,27 -25,30 -13,5 -16,27 -16,134 v 128 l -205,205 -205,205 v 122 123 h 76 c 69,0 79,-3 100,-25 29,-31 39,-31 69,-1 26,26 25,51 -3,74 -23,18 -46,15 -67,-8 z"
       id="path60"
       style="fill:#ffffff;fill-opacity:0.50226247"
       inkscape:connector-curvature="0" />
    <path
       d="m 1361,4186 c -7,-9 -11,-26 -7,-39 4,-19 -12,-40 -98,-126 -76,-75 -109,-102 -121,-97 -22,8 -52,-9 -60,-35 -8,-24 19,-59 45,-59 26,0 53,35 45,60 -6,17 11,40 96,125 89,91 105,103 128,99 34,-7 54,15 49,53 -2,23 -8,29 -34,31 -19,2 -36,-3 -43,-12 z m -213,-302 c 2,-11 -5,-27 -14,-35 -14,-12 -19,-10 -35,10 -15,19 -17,27 -8,38 17,20 53,12 57,-13 z"
       id="path62"
       style="fill:#ffffff;fill-opacity:0.50226247"
       inkscape:connector-curvature="0" />
    <path
       d="m 4932,4098 c -19,-19 -14,-66 8,-80 17,-11 20,-24 20,-83 v -70 l 150,-150 150,-150 v -177 c 0,-163 -1,-178 -19,-187 -44,-24 -24,-91 28,-91 51,0 69,50 31,85 -19,17 -20,31 -20,199 v 181 l -150,150 -150,150 v 65 c 0,54 3,67 20,78 24,15 26,54 4,76 -18,19 -55,21 -72,4 z"
       id="path64"
       style="fill:#ffffff;fill-opacity:0.50226247"
       inkscape:connector-curvature="0" />
    <path
       d="m 5100,4090 c -11,-11 -20,-24 -20,-29 0,-4 9,-20 20,-34 11,-14 20,-36 20,-48 0,-17 73,-97 275,-299 l 275,-276 v -97 c 0,-86 -2,-97 -20,-107 -24,-13 -27,-62 -5,-80 23,-19 64,-4 71,27 5,20 2,31 -14,44 -20,16 -22,27 -22,117 v 100 l -270,269 c -235,234 -270,273 -270,300 0,17 8,37 20,48 11,10 20,24 20,32 0,15 -35,53 -50,53 -5,0 -19,-9 -30,-20 z"
       id="path66"
       style="fill:#ffffff;fill-opacity:0.50226247"
       inkscape:connector-curvature="0" />
    <path
       d="m 4280,4070 c -24,-24 -25,-29 -4,-59 13,-17 23,-22 44,-18 23,5 41,-9 161,-129 l 134,-134 h 87 87 l 75,-77 76,-77 v -91 c 0,-79 -2,-92 -20,-103 -41,-25 -6,-101 39,-84 36,13 43,64 11,84 -18,11 -20,24 -20,108 v 95 l -83,83 -82,82 h -90 -90 l -127,127 c -112,112 -126,130 -121,153 4,21 -1,31 -18,44 -30,21 -35,20 -59,-4 z m 690,-705 c 18,-21 3,-55 -25,-55 -15,0 -26,7 -30,20 -7,23 10,50 30,50 7,0 18,-7 25,-15 z"
       id="path68"
       style="fill:#ffffff;fill-opacity:0.50226247"
       inkscape:connector-curvature="0" />
    <path
       d="m 2823,4049 c -17,-6 -23,-17 -23,-37 0,-36 22,-56 53,-48 19,4 33,-5 72,-44 l 49,-50 h 160 160 l 71,-72 72,-73 2,-152 c 2,-137 0,-152 -17,-165 -10,-7 -21,-20 -24,-29 -9,-23 19,-59 46,-59 46,0 61,45 26,80 -18,18 -20,33 -20,174 v 154 l -76,76 -75,76 h -161 -160 l -46,45 c -33,33 -45,53 -46,76 -1,39 -31,61 -63,48 z m 651,-671 c 15,-24 -13,-53 -43,-43 -21,6 -29,43 -14,59 12,12 45,2 57,-16 z"
       id="path70"
       style="fill:#ffffff;fill-opacity:0.50226247"
       inkscape:connector-curvature="0" />
    <path
       d="m 4566,4034 c -34,-33 -10,-77 42,-76 19,0 43,-15 80,-50 42,-40 58,-49 82,-46 27,2 46,-13 180,-147 l 150,-150 v -230 -230 l -490,-490 -490,-490 v -142 c 0,-132 -1,-143 -20,-153 -26,-14 -27,-65 -2,-79 27,-14 66,9 70,41 2,19 -3,30 -17,38 -20,10 -21,20 -21,148 v 137 l 490,490 490,490 v 240 240 l -153,153 c -142,142 -155,152 -190,152 -31,0 -45,8 -83,46 -28,29 -43,52 -39,62 8,21 -21,62 -45,62 -10,0 -26,-7 -34,-16 z m 52,-6 c 30,-30 -1,-73 -36,-51 -23,14 -25,29 -7,47 20,19 27,20 43,4 z M 4144,1817 c 28,-21 12,-59 -22,-55 -30,3 -41,30 -22,53 15,18 21,19 44,2 z"
       id="path72"
       style="fill:#ffffff;fill-opacity:0.50226247"
       inkscape:connector-curvature="0" />
    <path
       d="m 1926,3899 c -21,-31 -6,-63 32,-67 22,-2 34,3 45,18 13,18 23,21 73,18 l 59,-3 3,-400 2,-400 130,-130 130,-130 v -520 l 1,-521 239,-239 c 197,-196 238,-243 238,-265 -1,-38 9,-50 41,-50 39,0 57,24 45,58 -8,22 -16,27 -42,28 -29,0 -59,26 -267,234 l -235,235 v 520 520 l -135,135 -135,135 v 402 403 h -68 c -55,0 -71,4 -85,20 -22,26 -52,25 -71,-1 z m 64,-10 c 9,-15 8,-24 -1,-35 -18,-22 -53,-13 -57,15 -6,40 39,56 58,20 z m 961,-2615 c 17,-21 0,-49 -32,-49 -18,0 -25,6 -27,24 -6,38 34,55 59,25 z"
       id="path74"
       style="fill:#ffffff;fill-opacity:0.50226247"
       inkscape:connector-curvature="0" />
    <path
       d="m 1556,3674 c -22,-22 -20,-61 4,-76 17,-11 20,-24 20,-97 v -84 l 286,-286 c 157,-157 304,-305 325,-328 l 39,-43 v -495 c -1,-475 -1,-495 -20,-505 -27,-15 -34,-47 -16,-75 20,-30 56,-33 79,-7 22,25 21,48 -3,72 -19,19 -20,33 -20,527 v 507 l -325,326 -325,325 v 75 c 0,64 3,77 20,88 27,16 27,68 1,82 -27,14 -47,13 -65,-6 z m 707,-1948 c 8,-21 -17,-50 -37,-43 -16,6 -22,38 -9,50 11,12 41,7 46,-7 z"
       id="path76"
       style="fill:#ffffff;fill-opacity:0.50226247"
       inkscape:connector-curvature="0" />
    <path
       d="m 4308,3669 c -25,-14 -23,-65 2,-79 24,-13 56,-5 64,15 4,12 25,15 93,15 h 89 l 72,-73 72,-72 v -95 -95 l -175,-175 c -125,-125 -181,-174 -195,-172 -33,5 -62,-16 -58,-45 4,-33 36,-54 66,-42 17,6 22,16 22,41 0,30 20,53 180,213 l 180,180 v 95 95 l -83,83 -82,82 h -85 c -73,0 -88,3 -103,20 -19,22 -33,24 -59,9 z m 62,-32 c 0,-24 -18,-39 -41,-35 -29,4 -38,37 -14,54 20,15 55,2 55,-19 z m -27,-729 c 15,-23 1,-48 -27,-48 -33,0 -46,38 -20,57 21,15 34,13 47,-9 z"
       id="path78"
       style="fill:#ffffff;fill-opacity:0.50226247"
       inkscape:connector-curvature="0" />
    <path
       d="m 2239,3479 c -27,-51 43,-98 73,-49 10,16 24,20 68,20 55,0 56,-1 118,-63 l 62,-63 v -375 -375 l 55,-54 55,-54 v -351 -350 l 133,-133 132,-132 h 137 138 l 77,75 77,75 h 65 c 52,0 69,-4 87,-21 26,-24 58,-19 74,12 25,45 -35,86 -74,50 -18,-17 -35,-21 -86,-21 h -64 l -82,-80 -82,-80 h -128 -129 l -132,132 -133,133 v 350 351 l -50,49 -50,49 v 374 374 l -67,69 -68,69 h -57 c -47,0 -59,4 -68,20 -15,28 -66,27 -81,-1 z m 69,-18 c 6,-40 -39,-56 -58,-20 -9,15 -8,24 1,35 18,22 53,13 57,-15 z M 3578,1667 c 5,-25 -15,-46 -38,-40 -22,6 -32,26 -23,49 8,21 57,14 61,-9 z"
       id="path80"
       style="fill:#ffffff;fill-opacity:0.50226247"
       inkscape:connector-curvature="0" />
    <path
       d="m 1246,3464 c -31,-31 -10,-74 37,-74 29,0 66,-34 375,-343 270,-270 342,-347 342,-368 0,-30 17,-49 45,-49 27,0 45,18 45,46 0,29 -24,47 -54,42 -21,-4 -74,45 -371,342 -266,266 -344,350 -339,363 8,21 -21,57 -47,57 -10,0 -25,-7 -33,-16 z"
       id="path82"
       style="fill:#ffffff;fill-opacity:0.50226247"
       inkscape:connector-curvature="0" />
    <path
       d="m 4808,3199 c -11,-6 -18,-22 -18,-42 0,-29 -29,-61 -268,-300 l -267,-267 h -60 c -49,0 -62,4 -73,20 -14,22 -61,27 -80,8 -15,-15 -15,-61 0,-76 19,-19 66,-14 80,8 11,17 24,20 78,20 h 65 l 270,270 c 235,236 274,270 300,270 37,0 55,16 55,46 0,44 -43,66 -82,43 z m 52,-24 c 18,-21 5,-47 -22,-43 -26,3 -37,36 -16,49 18,12 24,11 38,-6 z m -755,-595 c 0,-18 -6,-26 -23,-28 -24,-4 -38,18 -28,44 3,9 15,14 28,12 17,-2 23,-10 23,-28 z"
       id="path84"
       style="fill:#ffffff;fill-opacity:0.50226247"
       inkscape:connector-curvature="0" />
    <path
       d="m 5505,3133 c -10,-9 -15,-26 -12,-39 3,-17 -6,-33 -34,-60 -37,-37 -39,-41 -39,-104 0,-54 -3,-67 -20,-77 -10,-7 -25,-10 -33,-7 -8,3 -24,-4 -37,-14 -30,-24 -22,-69 15,-78 34,-8 55,11 55,51 0,19 8,39 20,50 16,14 20,31 20,80 0,56 3,64 33,93 21,21 39,30 50,27 27,-11 57,13 57,45 0,45 -44,64 -75,33 z m 63,-36 c -5,-37 -67,-33 -68,5 0,4 7,14 16,22 21,22 56,3 52,-27 z m -180,-293 c 2,-11 -3,-26 -11,-33 -29,-24 -70,17 -46,46 17,20 53,12 57,-13 z"
       id="path86"
       style="fill:#ffffff;fill-opacity:0.50226247"
       inkscape:connector-curvature="0" />
    <path
       d="m 5241,3054 c -16,-12 -22,-23 -18,-40 3,-17 -5,-33 -29,-58 l -34,-35 v -141 -140 h 128 c 116,0 131,2 147,20 10,11 31,20 46,20 25,0 59,30 59,52 0,15 -33,38 -55,38 -27,0 -50,-33 -41,-57 4,-9 -1,-24 -10,-34 -15,-17 -33,-19 -141,-19 h -123 v 128 128 l 33,32 c 21,21 39,30 50,27 8,-4 25,-2 36,5 28,14 29,65 2,80 -25,13 -22,13 -50,-6 z m 57,-31 c 4,-30 -31,-49 -52,-27 -18,18 -18,17 -10,39 10,25 58,16 62,-12 z m 217,-298 c 0,-23 -5,-31 -21,-33 -30,-4 -48,21 -34,48 18,33 55,23 55,-15 z"
       id="path88"
       style="fill:#ffffff;fill-opacity:0.50226247"
       inkscape:connector-curvature="0" />
    <path
       d="m 3252,2898 -62,-63 v -133 c 0,-110 -3,-134 -15,-138 -29,-11 -38,-43 -20,-70 18,-29 46,-31 68,-6 23,25 21,49 -3,64 -18,12 -20,24 -20,149 v 136 l 59,56 58,56 169,-2 169,-2 3,-210 2,-211 155,-154 155,-155 v -270 c 0,-259 -1,-271 -20,-283 -49,-30 -2,-100 49,-73 28,15 29,66 1,81 -19,10 -20,21 -20,283 v 272 l -155,155 -155,155 v 212 213 h -178 -179 z m 756,-1265 c 4,-29 -28,-47 -53,-29 -12,9 -15,19 -10,35 9,30 59,26 63,-6 z"
       id="path90"
       style="fill:#ffffff;fill-opacity:0.50226247"
       inkscape:connector-curvature="0" />
    <path
       d="m 3400,2760 c -26,-26 -25,-45 2,-72 20,-20 22,-30 19,-122 l -2,-101 220,-220 221,-220 v -275 c 0,-263 -1,-276 -20,-293 -22,-19 -25,-39 -10,-68 12,-22 59,-26 78,-7 19,19 14,66 -8,80 -19,12 -20,24 -20,293 v 280 l -215,215 -215,215 v 102 c 0,90 3,106 20,123 11,11 20,27 20,35 0,8 -9,24 -20,35 -11,11 -27,20 -35,20 -8,0 -24,-9 -35,-20 z m 54,-15 c 20,-21 10,-45 -19,-45 -27,0 -36,17 -23,43 11,21 22,22 42,2 z m 441,-1325 c 0,-18 -6,-26 -21,-28 -26,-4 -40,24 -23,45 18,21 44,11 44,-17 z"
       id="path92"
       style="fill:#ffffff;fill-opacity:0.50226247"
       inkscape:connector-curvature="0" />
    <path
       d="m 4986,2614 c -23,-23 -20,-51 8,-69 27,-18 59,-9 69,19 5,12 30,15 134,15 l 128,-1 32,-31 c 18,-16 30,-34 27,-39 -12,-19 7,-58 31,-64 33,-8 55,11 55,47 0,32 -12,42 -50,41 -18,0 -37,10 -56,29 l -28,29 h -135 c -125,0 -137,2 -149,20 -15,24 -45,26 -66,4 z m 471,-110 c 6,-17 -6,-45 -23,-51 -21,-7 -47,23 -40,45 9,27 53,30 63,6 z"
       id="path94"
       style="fill:#ffffff;fill-opacity:0.50226247"
       inkscape:connector-curvature="0" />
    <path
       d="m 1866,2599 c -22,-33 -2,-69 38,-69 25,0 43,-11 79,-48 l 47,-48 v -250 c 0,-238 1,-252 20,-269 19,-17 20,-31 20,-228 v -211 l 158,-158 c 125,-126 156,-164 154,-182 -4,-27 21,-56 48,-56 11,0 27,11 35,24 23,35 5,66 -38,66 -28,0 -51,19 -185,153 l -152,152 v 211 211 l -25,23 -25,23 v 252 251 l -49,48 c -32,32 -47,54 -44,66 13,50 -51,81 -81,39 z m 65,-5 c 17,-21 0,-49 -32,-49 -18,0 -25,6 -27,24 -6,38 34,55 59,25 z m 527,-1463 c 6,-37 -26,-52 -52,-25 -12,12 -13,20 -5,35 15,28 53,21 57,-10 z"
       id="path96"
       style="fill:#ffffff;fill-opacity:0.50226247"
       inkscape:connector-curvature="0" />
    <path
       d="m 4793,2498 c -19,-25 -21,-46 -7,-67 20,-28 69,-28 84,-1 10,19 21,20 167,20 157,0 157,0 185,-27 18,-17 28,-37 28,-55 0,-38 41,-65 75,-50 48,22 17,114 -32,98 -13,-4 -28,3 -48,24 l -29,30 h -166 c -154,0 -168,2 -185,20 -20,23 -58,26 -72,8 z m 56,-22 c 15,-18 3,-46 -20,-46 -22,0 -34,22 -25,45 7,19 30,19 45,1 z"
       id="path98"
       style="fill:#ffffff;fill-opacity:0.50226247"
       inkscape:connector-curvature="0" />
    <path
       d="m 4665,2313 c -10,-9 -15,-26 -12,-39 3,-18 -16,-43 -95,-121 l -98,-98 v -116 -117 l -245,-246 -245,-245 v -223 c 0,-212 -1,-224 -20,-236 -38,-23 -20,-82 25,-82 45,0 61,53 25,85 -19,17 -20,31 -20,234 v 215 l 245,246 245,246 v 113 114 l 97,99 c 80,81 102,98 120,93 15,-3 30,2 43,15 25,25 25,42 2,63 -24,21 -46,21 -67,0 z m 53,-5 c 30,-30 -1,-73 -36,-51 -23,14 -25,29 -7,47 20,19 27,20 43,4 z M 4004,848 c 8,-14 7,-21 -6,-34 -30,-30 -75,9 -48,42 16,18 39,15 54,-8 z"
       id="path100"
       style="fill:#ffffff;fill-opacity:0.50226247"
       inkscape:connector-curvature="0" />
    <path
       d="m 4895,2313 c -10,-9 -15,-26 -12,-39 3,-18 -16,-43 -95,-121 l -98,-98 v -140 c 0,-129 -2,-141 -20,-153 -38,-23 -20,-82 25,-82 45,0 63,59 25,82 -18,12 -20,24 -20,148 v 135 l 99,99 c 72,72 104,97 116,92 27,-10 55,12 55,42 0,49 -42,69 -75,35 z m 58,-15 c 15,-23 1,-48 -28,-48 -14,0 -25,2 -25,4 0,2 -3,11 -6,19 -6,16 23,50 39,44 6,-2 15,-10 20,-19 z m -229,-560 c 8,-14 7,-21 -6,-34 -30,-30 -75,9 -48,42 16,18 39,15 54,-8 z"
       id="path102"
       style="fill:#ffffff;fill-opacity:0.50226247"
       inkscape:connector-curvature="0" />
    <path
       d="m 5227,2247 c -27,-23 -28,-47 -2,-73 24,-24 25,-29 25,-165 v -141 l -67,-69 -67,-70 -95,3 c -90,3 -96,4 -99,25 -2,14 4,26 17,33 25,13 28,61 6,80 -23,19 -64,4 -71,-27 -5,-20 -2,-31 14,-44 14,-11 22,-29 22,-48 v -31 h 108 109 l 66,69 67,69 v 149 c 0,136 2,150 20,166 11,9 20,25 20,36 0,32 -48,58 -73,38 z m 52,-21 c 23,-28 -17,-68 -45,-45 -15,12 -19,41 -7,52 11,12 40,8 52,-7 z"
       id="path104"
       style="fill:#ffffff;fill-opacity:0.50226247"
       inkscape:connector-curvature="0" />
    <path
       d="m 3070,2055 c -74,-74 -100,-95 -116,-91 -26,7 -64,-19 -64,-43 0,-22 30,-51 53,-51 22,0 49,43 41,64 -5,12 19,42 90,111 l 96,95 h 155 156 l 114,-116 115,-115 v -567 c 0,-562 0,-567 -21,-580 -26,-16 -22,-59 6,-78 18,-12 24,-11 43,2 28,19 29,60 2,74 -20,11 -20,21 -20,583 v 572 l -118,118 -117,117 h -160 -160 z m -102,-136 c 3,-28 -16,-43 -42,-33 -38,14 -22,68 18,62 14,-2 22,-12 24,-29 z M 3741,744 c 17,-21 0,-49 -32,-49 -27,0 -37,28 -19,50 16,19 34,19 51,-1 z"
       id="path106"
       style="fill:#ffffff;fill-opacity:0.50226247"
       inkscape:connector-curvature="0" />
    <path
       d="m 5312,2088 c -19,-19 -14,-56 8,-68 18,-10 20,-21 20,-103 v -92 l -93,-93 -92,-92 h -318 c -304,0 -318,1 -337,20 -24,24 -43,25 -64,4 -23,-23 -20,-51 8,-69 27,-18 59,-9 70,20 5,13 47,15 327,14 l 322,-1 93,93 94,94 v 95 c 0,85 2,97 21,108 15,10 19,21 17,45 -3,27 -7,32 -33,35 -17,2 -36,-3 -43,-10 z m 66,-24 c 2,-11 -4,-26 -12,-33 -31,-26 -71,14 -45,45 17,21 53,14 57,-12 z m -888,-409 c 6,-8 10,-22 8,-32 -4,-24 -47,-24 -62,0 -9,15 -7,21 8,33 25,18 31,18 46,-1 z"
       id="path108"
       style="fill:#ffffff;fill-opacity:0.50226247"
       inkscape:connector-curvature="0" />
    <path
       d="m 3309,1969 c -13,-13 -18,-27 -13,-41 5,-16 -9,-35 -67,-94 -60,-61 -79,-74 -105,-74 -42,0 -60,-23 -48,-58 12,-36 56,-42 77,-11 9,12 13,28 10,36 -9,23 146,175 170,167 22,-7 57,21 57,46 0,19 -30,50 -48,50 -7,0 -21,-9 -33,-21 z m -162,-235 c 8,-20 -8,-48 -30,-52 -22,-5 -42,35 -26,54 16,19 48,18 56,-2 z"
       id="path110"
       style="fill:#ffffff;fill-opacity:0.50226247"
       inkscape:connector-curvature="0" />
    <path
       d="m 1941,1578 c -10,-26 2,-56 25,-65 11,-4 14,-41 14,-207 v -201 l 108,-108 c 91,-90 108,-113 104,-133 -5,-30 13,-54 42,-54 28,0 46,18 46,45 0,28 -19,45 -50,45 -19,0 -52,27 -133,108 l -107,107 v 195 c 0,183 1,197 20,213 38,32 19,77 -32,77 -21,0 -31,-6 -37,-22 z"
       id="path112"
       style="fill:#ffffff;fill-opacity:0.50226247"
       inkscape:connector-curvature="0" />
    <path
       d="m 4281,1566 c -7,-9 -11,-26 -7,-39 4,-19 -11,-39 -89,-117 l -95,-95 v -162 c 0,-98 -4,-163 -10,-163 -5,0 -14,-9 -20,-20 -23,-44 34,-88 71,-54 25,22 24,51 -1,66 -19,12 -20,24 -20,173 v 160 l 88,88 c 65,65 94,87 113,87 34,0 51,21 47,57 -2,23 -8,29 -34,31 -19,2 -36,-3 -43,-12 z m 67,-22 c 2,-11 -4,-26 -12,-33 -31,-26 -71,14 -45,45 17,21 53,14 57,-12 z M 4128,968 c 16,-16 15,-23 -4,-42 -12,-12 -20,-13 -35,-6 -19,10 -26,40 -12,53 10,11 38,8 51,-5 z"
       id="path114"
       style="fill:#ffffff;fill-opacity:0.50226247"
       inkscape:connector-curvature="0" />
    <path
       d="m 3508,1500 c -11,-17 -24,-20 -83,-20 h -71 l -47,-48 -47,-48 v -150 -150 l -43,-42 -43,-42 h -99 c -89,0 -102,2 -113,20 -14,22 -61,27 -80,8 -29,-29 -2,-88 39,-88 10,0 28,9 39,20 17,17 33,20 124,20 h 103 l 52,50 51,49 v 154 153 l 38,37 c 36,35 41,37 103,37 53,0 66,-3 77,-20 22,-36 92,-16 92,26 0,52 -66,76 -92,34 z m 68,-15 c 7,-18 -13,-45 -33,-45 -17,0 -27,24 -19,45 7,20 45,19 52,0 z"
       id="path116"
       style="fill:#ffffff;fill-opacity:0.50226247"
       inkscape:connector-curvature="0" />
    <path
       d="m 2343,1499 c -30,-11 -38,-45 -18,-76 13,-20 23,-24 44,-20 24,5 39,-5 119,-86 l 92,-92 v -212 c 0,-202 -1,-213 -20,-223 -23,-12 -27,-59 -8,-78 15,-15 61,-15 76,0 18,18 14,56 -8,75 -19,16 -20,30 -20,233 v 215 l -95,95 c -68,68 -93,99 -89,112 12,40 -30,73 -73,57 z m 50,-33 c 3,-8 0,-21 -6,-31 -17,-22 -47,-9 -47,21 0,19 5,24 24,24 13,0 26,-6 29,-14 z m 217,-701 c 17,-20 5,-45 -20,-45 -23,0 -35,22 -26,45 7,19 30,19 46,0 z"
       id="path118"
       style="fill:#ffffff;fill-opacity:0.50226247"
       inkscape:connector-curvature="0" />
    <path
       d="m 3512,1318 c -18,-18 -15,-46 8,-65 16,-14 20,-30 20,-88 v -70 L 3352,907 3165,720 h -107 c -97,0 -108,2 -118,20 -15,27 -66,27 -80,-1 -9,-16 -8,-26 5,-45 19,-30 60,-32 75,-4 10,18 21,20 123,20 h 112 l 188,188 187,187 v 72 c 0,63 3,75 25,97 19,20 23,30 16,48 -9,26 -58,37 -79,16 z m 66,-27 c 6,-40 -39,-56 -58,-20 -9,15 -8,24 1,35 18,22 53,13 57,-15 z M 2930,731 c 7,-15 6,-23 -6,-35 -18,-18 -17,-18 -38,-10 -16,6 -22,45 -9,57 13,14 43,7 53,-12 z"
       id="path120"
       style="fill:#ffffff;fill-opacity:0.50226247"
       inkscape:connector-curvature="0" />
  </g>
</svg>
